<?xml version="1.0" standalone="no"?>
<!DOCTYPE svg PUBLIC "-//W3C//DTD SVG 20010904//EN"
 "http://www.w3.org/TR/2001/REC-SVG-20010904/DTD/svg10.dtd">
<svg version="1.0" xmlns="http://www.w3.org/2000/svg"
 width="180.000000pt" height="180.000000pt" viewBox="0 0 180.000000 180.000000"
 preserveAspectRatio="xMidYMid meet">
<metadata>
Created by potrace 1.14, written by Peter Selinger 2001-2017
</metadata>
<g transform="translate(0.000000,180.000000) scale(0.100000,-0.100000)"
fill="#000000" stroke="none">
<path d="M898 1738 c-2 -7 -4 -389 -3 -848 l0 -835 55 -1 c53 -2 346 -12 540
-18 52 -2 142 -5 200 -7 l105 -3 3 47 c2 32 -1 49 -10 51 -7 3 -53 7 -103 10
-198 13 -261 18 -285 22 -14 2 -69 7 -123 10 -53 3 -105 7 -115 9 -9 2 -27 4
-38 4 l-22 1 1 600 c0 330 2 600 4 600 2 0 13 -5 24 -10 18 -10 19 -27 19
-585 l0 -575 28 -1 c104 -5 342 -18 437 -25 39 -2 96 -5 128 -7 l57 -2 0 53
c0 28 -3 52 -7 53 -12 1 -71 8 -158 18 -44 6 -107 13 -140 17 -33 3 -78 9 -99
13 l-40 6 -1 440 c0 242 1 443 3 448 2 4 12 2 23 -3 18 -10 19 -25 19 -435 0
-234 3 -425 8 -426 4 0 14 -2 22 -3 8 -2 65 -7 125 -11 61 -4 117 -9 126 -10
9 -2 38 -5 65 -6 l49 -3 3 62 c2 34 -1 61 -5 60 -10 -3 -141 22 -168 32 -20 7
-20 16 -19 427 l0 420 -33 21 c-18 12 -37 22 -43 22 -5 0 -10 4 -10 9 0 5 -6
11 -12 13 -7 2 -62 32 -121 68 -59 36 -116 70 -125 75 -10 6 -40 23 -67 40
-28 16 -58 34 -67 40 -91 53 -187 111 -204 122 -17 11 -22 11 -26 1z"/>
<path d="M664 1375 c-21 -14 -21 -17 -22 -589 l0 -575 24 11 24 11 0 579 c0
318 -1 578 -3 578 -1 0 -12 -7 -23 -15z"/>
<path d="M402 1218 c-9 -9 -12 -119 -12 -435 0 -233 3 -423 8 -423 4 0 14 6
22 13 13 10 15 68 15 435 0 290 -3 422 -10 422 -6 0 -16 -5 -23 -12z"/>
</g>
</svg>
